# xmcd CD database file
#
# Track frame offsets:
#	182
#	17057
#	37395
#	84410
#	107337
#	140650
#	173160
#	211260
#	251597
#	271697
#
# Disc length: 4021 seconds
#
# Revision: 3
# Processed by: cddbd v1.4PL0 Copyright (c) Steve Scherf et al.
# Submitted via: CDex 1.40Beta9
#
DISCID=830fb30a
DTITLE=Albert King - Live in Montreux 1977
DYEAR=1977
DGENRE=Blues
TTITLE0=Watermelon man
TTITLE1=Don t burn down the bridge
TTITLE2=Blues at sunrise
TTITLE3=That s what the blues is all about
TTITLE4=Stormy monday
TTITLE5=Kansas City
TTITLE6=I m gonna call you as soon as the sun goes down
TTITLE7=As the years go passing by
TTITLE8=Overall junction
TTITLE9=I ll play the blues for you
EXTD=YEAR: 1977 ID3G: 0
EXTT0=
EXTT1=
EXTT2=
EXTT3=
EXTT4=
EXTT5=
EXTT6=
EXTT7=
EXTT8=
EXTT9=
PLAYORDER=
